<?xml version="1.0" standalone="no"?>
<!DOCTYPE svg PUBLIC "-//W3C//DTD SVG 20010904//EN"
 "http://www.w3.org/TR/2001/REC-SVG-20010904/DTD/svg10.dtd">
<svg version="1.0" xmlns="http://www.w3.org/2000/svg"
 width="260.000000pt" height="260.000000pt" viewBox="0 0 260.000000 260.000000"
 preserveAspectRatio="xMidYMid meet">
<metadata>
Created by potrace 1.11, written by Peter Selinger 2001-2013
</metadata>
<g transform="translate(0.000000,260.000000) scale(0.100000,-0.100000)"
fill="#000000" stroke="none">
<path d="M728 2413 c-89 -23 -97 -34 -295 -378 -45 -77 -146 -252 -226 -390
-203 -352 -207 -360 -207 -414 1 -25 7 -62 14 -81 7 -19 106 -177 221 -350
114 -173 242 -367 283 -430 92 -142 115 -167 167 -181 27 -8 223 -12 611 -12
l571 0 51 28 c54 29 52 27 272 350 36 53 126 185 200 293 215 314 205 295 205
377 0 68 -2 73 -64 180 -35 61 -74 128 -86 150 -13 22 -46 81 -75 130 -29 50
-86 149 -128 220 -41 72 -97 167 -123 213 -27 45 -49 85 -49 88 0 4 -32 56
-78 126 -16 24 -44 47 -78 64 l-54 27 -542 1 c-401 1 -555 -2 -590 -11z m712
-444 c268 -54 500 -279 555 -538 l7 -34 -29 21 c-123 88 -294 3 -296 -147 0
-69 39 -138 97 -168 61 -32 177 -22 201 17 3 5 10 10 15 10 14 0 1 -57 -32
-137 -78 -191 -249 -347 -443 -406 -85 -26 -107 -30 -190 -33 -328 -14 -631
211 -716 532 -27 101 -29 251 -4 349 93 373 462 609 835 534z"/>
</g>
</svg>
