<svg xmlns="http://www.w3.org/2000/svg" width="385" height="34" viewBox="0 0 385 34"><g fill="none" fill-rule="nonzero"><path fill="#F7A600" d="M10.24 9.052a2.373 2.373 0 0 0-2.324-2.378H3.222C1.828 6.674.728 5.588.728 4.25c0-1.338 1.1-2.462 2.494-2.462h18.992c1.355 0 2.494 1.086 2.494 2.462 0 1.377-1.139 2.424-2.494 2.424h-4.655c-1.31.038-2.37 1.086-2.37 2.378V28.97c0 1.338-1.1 2.462-2.494 2.462a2.453 2.453 0 0 1-2.456-2.462V9.052Z"/><path fill="#004F9E" d="M12.695 32.082a3.115 3.115 0 0 1-3.106-3.112V9.052c0-.94-.744-1.705-1.689-1.736H3.23C1.487 7.316.077 5.94.077 4.25S1.464 1.138 3.23 1.138H22.22c1.743 0 3.153 1.4 3.153 3.112 0 1.713-1.418 3.074-3.153 3.074h-4.655c-.952.03-1.711.795-1.711 1.736v19.918c0 1.72-1.418 3.111-3.153 3.111l-.007-.007ZM3.222 2.43c-1.03 0-1.843.795-1.843 1.812s.805 1.774 1.843 1.774h4.694c1.68.053 2.982 1.384 2.982 3.027v19.918c0 .987.82 1.812 1.797 1.812.975 0 1.843-.81 1.843-1.812V9.052c0-1.644 1.317-2.974 3.005-3.028h4.678c1 0 1.844-.81 1.844-1.774 0-.963-.83-1.812-1.844-1.812H3.222v-.007Z"/><path fill="#F7A600" d="M47.51 9.55a9.854 9.854 0 0 0-2.959 7.056 9.991 9.991 0 0 0 2.959 7.103c3.973 3.923 10.41 3.923 14.383 0a2.491 2.491 0 0 1 3.508 0 2.415 2.415 0 0 1 0 3.464c-2.873 2.837-6.645 4.389-10.704 4.389-4.058 0-7.822-1.545-10.704-4.389-2.873-2.837-4.399-6.553-4.399-10.567s1.526-7.684 4.4-10.52c2.873-2.837 6.645-4.39 10.703-4.39 4.059 0 7.823 1.545 10.704 4.39a2.415 2.415 0 0 1 0 3.463 2.498 2.498 0 0 1-3.508 0c-1.906-1.965-4.485-2.92-7.196-2.92-2.71 0-5.204.963-7.195 2.92h.008Z"/><path fill="#004F9E" d="M54.705 32.212c-4.213 0-8.179-1.621-11.169-4.573-2.958-2.92-4.593-6.835-4.593-11.025s1.588-8.02 4.593-10.98c2.99-2.951 6.956-4.572 11.17-4.572 4.213 0 8.178 1.629 11.168 4.572a3.073 3.073 0 0 1 0 4.381c-1.193 1.178-3.253 1.178-4.438 0-1.712-1.766-4.097-2.73-6.723-2.73-2.626 0-4.91.949-6.73 2.738-1.782 1.766-2.766 4.106-2.766 6.599a9.31 9.31 0 0 0 2.773 6.644c3.71 3.662 9.744 3.662 13.454 0a3.126 3.126 0 0 1 2.215-.91c.836 0 1.626.321 2.223.91a3.073 3.073 0 0 1 0 4.381c-2.99 2.951-6.956 4.572-11.17 4.572l-.007-.007Zm0-29.858a14.48 14.48 0 0 0-10.24 4.198c-2.749 2.714-4.205 6.193-4.205 10.062 0 3.869 1.495 7.424 4.206 10.108a14.523 14.523 0 0 0 10.24 4.198 14.48 14.48 0 0 0 10.238-4.198 1.783 1.783 0 0 0 0-2.546 1.822 1.822 0 0 0-1.293-.528c-.488 0-.945.191-1.286.528-4.221 4.167-11.091 4.167-15.312 0a10.54 10.54 0 0 1-3.153-7.562c0-2.867 1.116-5.505 3.153-7.516 2.068-2.034 4.709-3.112 7.652-3.112 2.943 0 5.716 1.109 7.668 3.127.674.665 1.874.673 2.571-.007a1.783 1.783 0 0 0 0-2.547 14.48 14.48 0 0 0-10.239-4.197v-.008Z"/><path fill="#F7A600" d="M34.606 4.373v24.72c0 1.376-1.1 2.461-2.494 2.461-1.394 0-2.455-1.085-2.455-2.462V4.372c0-1.337 1.1-2.423 2.455-2.423s2.494 1.086 2.494 2.424Z"/><path fill="#004F9E" d="M32.112 32.212c-1.72 0-3.114-1.4-3.114-3.112V4.373c0-1.69 1.395-3.074 3.114-3.074 1.72 0 3.152 1.376 3.152 3.074v24.72c0 1.743-1.386 3.111-3.152 3.111v.008Zm0-29.606c-.991 0-1.797.796-1.797 1.774v24.712c0 1.017.79 1.812 1.797 1.812a1.818 1.818 0 0 0 1.836-1.812V4.372c0-.993-.806-1.773-1.836-1.773v.007Z"/><path fill="#F7A600" d="M91.317 9.052a2.373 2.373 0 0 0-2.323-2.378H84.3c-1.394 0-2.494-1.086-2.494-2.424 0-1.338 1.1-2.462 2.494-2.462h18.991c1.356 0 2.494 1.086 2.494 2.462 0 1.377-1.138 2.424-2.494 2.424h-4.654c-1.31.038-2.37 1.086-2.37 2.378V28.97c0 1.338-1.1 2.462-2.495 2.462a2.453 2.453 0 0 1-2.455-2.462V9.052Z"/><path fill="#004F9E" d="M93.772 32.082c-1.719 0-3.113-1.4-3.113-3.112V9.052c0-.94-.744-1.705-1.689-1.736H84.3c-1.735 0-3.152-1.376-3.152-3.066s1.386-3.112 3.152-3.112h18.991c1.743 0 3.153 1.4 3.153 3.112 0 1.713-1.418 3.074-3.153 3.074h-4.654c-.953.03-1.712.795-1.712 1.736v19.918c0 1.72-1.418 3.111-3.153 3.111v-.007ZM84.3 2.43c-1.03 0-1.836.795-1.836 1.812s.806 1.774 1.836 1.774h4.694c1.68.053 2.982 1.384 2.982 3.027v19.918c0 .987.82 1.812 1.796 1.812.976 0 1.836-.81 1.836-1.812V9.052c0-1.644 1.317-2.974 3.005-3.028h4.678c1 0 1.844-.81 1.844-1.774 0-.963-.829-1.812-1.844-1.812H84.3v-.007Z"/><path fill="#F7A600" d="M128.44 28.259c.465 1.292-.17 2.676-1.479 3.135-1.309.458-2.75-.169-3.214-1.46l-.76-2.088c-.464-1.132-1.556-2.087-3.175-2.087h-5.538c-1.766 0-2.788.963-3.175 2.087l-.806 2.087c-.34 1.002-1.309 1.629-2.323 1.629-.341 0-.636-.038-.845-.168-1.309-.46-1.944-1.835-1.479-3.135L114.7 3.578c.341-1.002 1.27-1.63 2.324-1.63 1.053 0 1.99.628 2.331 1.591l9.093 24.72h-.008Zm-8.117-7.394-2.525-7.019c-.464-1.292-1.185-1.292-1.65 0l-1.773 4.924c-.364 1.017.403 2.095 1.495 2.095h2.215c1.1 0 1.867-1.078 1.495-2.095l-1.782-4.924 2.525 7.02Z"/><path fill="#004F9E" d="M107.97 32.212c-.473 0-.837-.069-1.123-.222a3.046 3.046 0 0 1-1.82-3.938l9.054-24.689c.418-1.246 1.58-2.056 2.943-2.056s2.525.81 2.95 2.018l9.094 24.72a3.101 3.101 0 0 1-.093 2.37 3.034 3.034 0 0 1-1.782 1.59c-1.657.581-3.477-.252-4.058-1.858l-.76-2.087c-.425-1.032-1.386-1.66-2.555-1.66h-5.538c-1.797 0-2.386 1.148-2.548 1.645l-.813 2.11c-.41 1.216-1.596 2.05-2.944 2.05l-.007.007Zm9.054-29.606c-.79 0-1.456.467-1.704 1.186l-9.062 24.696c-.349.971.116 1.958 1.084 2.302l.116.053s.155.077.512.077c.766 0 1.463-.49 1.704-1.185l.813-2.11c.527-1.56 1.944-2.509 3.787-2.509h5.538c1.696 0 3.153.956 3.78 2.493l.774 2.11c.341.948 1.387 1.422 2.378 1.07.465-.16.829-.489 1.03-.917.202-.428.217-.917.055-1.384l-9.093-24.72c-.248-.703-.922-1.162-1.712-1.162Zm1.069 18.917h-2.215c-.728 0-1.41-.352-1.836-.94a2.188 2.188 0 0 1-.279-2.02l1.774-4.923c.418-1.163 1.014-1.4 1.448-1.4.426 0 1.03.245 1.44 1.407l1.782 4.917c.248.68.14 1.43-.279 2.018a2.256 2.256 0 0 1-1.835.94Zm-1.116-7.883c-.054.091-.131.23-.209.435L114.995 19a.891.891 0 0 0 .116.833c.178.245.457.39.759.39h2.215c.31 0 .58-.145.759-.39a.904.904 0 0 0 .116-.841l-1.789-4.924a1.941 1.941 0 0 0-.21-.436l.016.008Z"/><path fill="#F7A600" d="M138.362 9.55a9.854 9.854 0 0 0-2.959 7.056 9.96 9.96 0 0 0 2.96 7.103c3.973 3.923 10.409 3.923 14.382 0a2.491 2.491 0 0 1 3.509 0 2.415 2.415 0 0 1 0 3.464c-2.874 2.837-6.638 4.389-10.704 4.389-4.066 0-7.823-1.545-10.704-4.389-2.881-2.837-4.4-6.553-4.4-10.567s1.526-7.684 4.4-10.52c2.873-2.837 6.638-4.39 10.704-4.39 4.066 0 7.823 1.545 10.704 4.39a2.415 2.415 0 0 1 0 3.463 2.491 2.491 0 0 1-3.509 0c-1.905-1.965-4.484-2.92-7.195-2.92-2.711 0-5.205.963-7.196 2.92h.008Z"/><path fill="#004F9E" d="M145.55 32.212a15.827 15.827 0 0 1-11.169-4.573c-2.959-2.92-4.593-6.835-4.593-11.025s1.588-8.02 4.593-10.98c2.99-2.951 6.955-4.572 11.169-4.572 4.213 0 8.179 1.629 11.169 4.572.596.59.921 1.369.921 2.195 0 .825-.325 1.605-.921 2.194-1.185 1.178-3.246 1.178-4.438 0-1.712-1.766-4.098-2.737-6.731-2.737-2.634 0-4.918.948-6.723 2.737-1.782 1.766-2.765 4.106-2.765 6.599a9.31 9.31 0 0 0 2.773 6.644c3.71 3.662 9.743 3.662 13.453 0a3.144 3.144 0 0 1 2.223-.91c.837 0 1.627.321 2.223.91a3.05 3.05 0 0 1 .922 2.194 3.05 3.05 0 0 1-.922 2.195c-2.99 2.951-6.955 4.572-11.169 4.572l-.015-.015Zm0-29.858a14.48 14.48 0 0 0-10.24 4.198c-2.757 2.714-4.205 6.193-4.205 10.062 0 3.869 1.495 7.432 4.206 10.108a14.48 14.48 0 0 0 10.239 4.198 14.48 14.48 0 0 0 10.24-4.198c.348-.344.534-.795.534-1.277 0-.482-.194-.933-.535-1.277a1.822 1.822 0 0 0-1.293-.527c-.488 0-.945.19-1.294.527-4.221 4.167-11.091 4.167-15.312 0a10.54 10.54 0 0 1-3.153-7.562c0-2.867 1.123-5.512 3.153-7.516 2.06-2.034 4.709-3.112 7.652-3.112 2.943 0 5.716 1.109 7.668 3.128.674.665 1.882.672 2.571-.008.349-.344.535-.795.535-1.277 0-.482-.194-.933-.535-1.277a14.48 14.48 0 0 0-10.239-4.197l.008.007Z"/><path fill="#F7A600" d="M217.852 28.259c.465 1.292-.17 2.676-1.48 3.135-1.308.458-2.749-.169-3.213-1.46l-.76-2.088c-.464-1.132-1.556-2.087-3.175-2.087h-5.538c-1.766 0-2.788.963-3.175 2.087l-.806 2.087c-.34 1.002-1.309 1.629-2.324 1.629-.34 0-.635-.038-.844-.168-1.309-.46-1.944-1.835-1.48-3.135l9.055-24.681c.34-1.002 1.27-1.63 2.324-1.63 1.053 0 1.99.628 2.331 1.591l9.093 24.72h-.008Zm-8.117-7.394-2.525-7.019c-.464-1.292-1.185-1.292-1.65 0l-1.773 4.924c-.364 1.017.403 2.095 1.495 2.095h2.215c1.1 0 1.866-1.078 1.495-2.095l-1.782-4.924 2.525 7.02Z"/><path fill="#004F9E" d="M197.381 32.212c-.472 0-.836-.069-1.123-.222a3.046 3.046 0 0 1-1.82-3.938l9.054-24.689c.419-1.238 1.573-2.056 2.944-2.056 1.37 0 2.525.81 2.95 2.018l9.094 24.72a3.101 3.101 0 0 1-.093 2.37 3.034 3.034 0 0 1-1.782 1.59c-1.657.581-3.477-.252-4.058-1.858l-.76-2.087c-.425-1.032-1.386-1.66-2.555-1.66h-5.538c-1.797 0-2.386 1.148-2.548 1.645l-.814 2.11c-.41 1.216-1.595 2.05-2.943 2.05l-.008.007Zm9.055-29.606c-.79 0-1.464.467-1.704 1.186l-9.062 24.696c-.349.971.116 1.965 1.084 2.302l.116.053s.163.077.511.077c.767 0 1.464-.49 1.704-1.185l.814-2.11c.526-1.56 1.944-2.509 3.787-2.509h5.538c1.696 0 3.152.956 3.78 2.493l.767 2.11c.34.948 1.386 1.422 2.377 1.07.465-.16.83-.489 1.03-.917.202-.428.217-.917.055-1.384l-9.093-24.72c-.248-.703-.922-1.162-1.712-1.162h.008Zm1.069 18.917h-2.216c-.728 0-1.41-.352-1.835-.94a2.188 2.188 0 0 1-.28-2.02l1.775-4.923c.418-1.163 1.014-1.4 1.448-1.4.426 0 1.03.245 1.44 1.4l1.782 4.924c.248.68.14 1.43-.279 2.018a2.256 2.256 0 0 1-1.835.94Zm-1.116-7.883c-.054.091-.131.23-.209.435L204.406 19a.891.891 0 0 0 .117.833c.178.245.457.39.759.39h2.215c.31 0 .58-.145.759-.39a.904.904 0 0 0 .116-.841l-1.79-4.924a1.941 1.941 0 0 0-.208-.436l.015.008Z"/><path fill="#F7A600" d="M176.229 31.562c-2.03 0-3.679-1.629-3.679-3.632V4.373c0-1.507 1.394-2.692 3.036-2.37 1.139.229 1.913 1.3 1.913 2.446v19.972c0 1.215 1 2.21 2.239 2.21h8.295a2.477 2.477 0 0 1 2.261 3.516c-.395.895-1.363 1.415-2.346 1.415h-11.719Z"/><path fill="#004F9E" d="M187.948 32.212h-11.719c-2.393 0-4.337-1.92-4.337-4.282V4.373c0-.918.41-1.782 1.138-2.363a3.227 3.227 0 0 1 2.688-.635c1.41.283 2.44 1.576 2.44 3.09v19.97c0 .857.704 1.56 1.58 1.56h8.295c1.069 0 2.052.528 2.641 1.415.596.902.674 1.996.225 3.013-.488 1.093-1.65 1.796-2.951 1.796v-.007ZM175.044 2.606c-.434 0-.844.138-1.177.413a1.743 1.743 0 0 0-.659 1.361v23.558c0 1.644 1.356 2.982 3.021 2.982h11.719c.774 0 1.479-.413 1.75-1.025.271-.604.225-1.254-.124-1.781a1.838 1.838 0 0 0-1.541-.826h-8.295c-1.596 0-2.89-1.285-2.89-2.86V4.457c0-.88-.596-1.66-1.386-1.812a1.936 1.936 0 0 0-.418-.039Z"/><path fill="#F7A600" d="M241.754 14.733c.891-1.292 1.31-2.798 1.31-4.427 0-4.595-3.765-8.311-8.42-8.311h-9.434a2.448 2.448 0 0 0-2.455 2.462v24.635c0 1.377 1.1 2.462 2.455 2.462h12.354c4.91 0 9.008-4.052 9.008-8.938 0-3.51-1.944-6.392-4.825-7.89l.007.007Zm-14.042-3.968V9.259c0-1.293 1.1-2.378 2.409-2.378h4.19c1.905 0 3.47 1.544 3.47 3.425 0 1.88-1.565 3.38-3.47 3.38h-4.787c-1.014 0-1.82-1.086-1.82-2.378v-.543h.008Zm9.527 15.873h-7.11c-1.31 0-2.41-1.048-2.41-2.34v-3.303c0-1.338.806-2.378 1.821-2.378h7.707c2.238 0 4.058 1.797 4.058 4.007s-1.82 4.006-4.058 4.006l-.008.008Z"/><path fill="#004F9E" d="M237.572 32.212h-12.354c-1.72 0-3.114-1.4-3.114-3.112V4.457a3.112 3.112 0 0 1 3.114-3.112h9.434c5.003 0 9.077 4.022 9.077 8.961 0 1.552-.356 2.959-1.053 4.198 2.874 1.758 4.562 4.748 4.562 8.12 0 5.199-4.43 9.588-9.666 9.588ZM225.218 2.645a1.785 1.785 0 0 0-1.797 1.812v24.635c0 1.017.79 1.812 1.797 1.812h12.354c4.53 0 8.357-3.792 8.357-8.288 0-3.12-1.673-5.857-4.477-7.317l-.65-.337.41-.596c.798-1.162 1.2-2.523 1.2-4.06 0-4.22-3.485-7.661-7.76-7.661h-9.434Zm12.02 24.635h-7.11c-1.688 0-3.067-1.338-3.067-2.99v-3.295c0-1.697 1.085-3.028 2.479-3.028h7.707c2.602 0 4.716 2.088 4.716 4.657s-2.114 4.656-4.716 4.656h-.008Zm-7.706-8.02c-.643 0-1.162.78-1.162 1.727v3.296c0 .933.79 1.69 1.759 1.69h7.11c1.874 0 3.4-1.507 3.4-3.357 0-1.85-1.526-3.357-3.4-3.357h-7.707Zm4.787-4.932h-4.787c-1.363 0-2.478-1.361-2.478-3.028V9.25c0-1.643 1.402-3.027 3.067-3.027h4.19c2.277 0 4.128 1.827 4.128 4.075s-1.85 4.03-4.128 4.03h.008Zm-4.19-6.805c-.953 0-1.759.795-1.759 1.736v2.049c0 .94.535 1.728 1.162 1.728h4.787c1.549 0 2.811-1.224 2.811-2.738s-1.262-2.775-2.811-2.775h-4.19Z"/><g fill="#004F9E" transform="translate(1.96 2.945)"><circle cx=".994" cy=".972" r="1"/><circle cx="19.973" cy=".972" r="1"/><g transform="translate(60.548 3.919)"><circle cx=".9" cy=".69" r="1"/><circle cx=".9" cy="18.888" r="1"/></g><circle cx="152.48" cy="4.608" r="1"/><circle cx="152.48" cy="22.759" r="1"/><circle cx="82.268" cy=".972" r="1"/><circle cx="101.247" cy=".972" r="1"/><circle cx="91.692" cy="26.435" r="1"/><circle cx="114.909" cy=".972" r="1"/><circle cx="123.953" cy="26.435" r="1"/><circle cx="105.889" cy="26.435" r="1"/><circle cx="29.878" cy=".972" r="1"/><circle cx="29.878" cy="26.309" r="1"/><circle cx="10.417" cy="26.309" r="1"/><circle cx="173.082" cy=".972" r="1"/><circle cx="204.575" cy=".972" r="1"/><circle cx="213.649" cy="26.435" r="1"/><circle cx="195.493" cy="26.435" r="1"/><circle cx="186.17" cy="26.435" r="1"/><circle cx="223.407" cy=".972" r="1"/><circle cx="223.407" cy="26.435" r="1"/></g><path fill="#F7A600" d="M259.89 20.248a1.817 1.817 0 0 1 .333-2.538l11.491-8.808a1.807 1.807 0 0 1 2.536.335 1.817 1.817 0 0 1-.333 2.538l-11.49 8.808c-.796.61-1.931.457-2.537-.335Z"/><path fill="#004F9E" d="M261.328 21.55a2.402 2.402 0 0 1-2.384-2.712c.083-.64.409-1.204.923-1.593l11.492-8.808a2.395 2.395 0 0 1 3.36.45c.387.51.56 1.143.478 1.775a2.372 2.372 0 0 1-.924 1.593l-11.491 8.808a2.363 2.363 0 0 1-1.454.495v-.008Zm11.484-12.435c-.257 0-.522.084-.742.252l-11.491 8.808a1.235 1.235 0 0 0-.47.808c-.045.32.046.64.243.899.409.533 1.18.64 1.71.228l11.492-8.808c.257-.198.424-.487.462-.807.045-.32-.046-.64-.243-.9a1.23 1.23 0 0 0-.968-.48h.007Z"/><path fill="#F7A600" d="M259.89 17.536a1.79 1.79 0 0 1 2.536-.34l11.491 8.94a1.85 1.85 0 0 1 .333 2.576 1.79 1.79 0 0 1-2.536.34l-11.49-8.94a1.85 1.85 0 0 1-.334-2.576Z"/><path fill="#004F9E" d="M272.812 30.042a2.34 2.34 0 0 1-1.453-.502l-11.492-8.941a2.458 2.458 0 0 1-.446-3.418 2.378 2.378 0 0 1 3.36-.457l11.492 8.94c.507.395.833.975.924 1.617a2.472 2.472 0 0 1-.47 1.802 2.379 2.379 0 0 1-1.907.952l-.008.007ZM261.328 17.42c-.363 0-.734.17-.969.488a1.27 1.27 0 0 0-.242.912c.046.325.205.619.47.82l11.49 8.94a1.202 1.202 0 0 0 1.712-.231 1.27 1.27 0 0 0 .242-.913 1.258 1.258 0 0 0-.47-.82l-11.49-8.94a1.217 1.217 0 0 0-.743-.256Z"/><path fill="#F7A600" d="M383.375 17.536a1.827 1.827 0 0 0-2.569-.34l-11.638 8.94a1.833 1.833 0 0 0-.337 2.576 1.827 1.827 0 0 0 2.568.34l11.638-8.94a1.833 1.833 0 0 0 .338-2.576Z"/><path fill="#004F9E" d="M370.287 30.042a2.43 2.43 0 0 1-2.415-2.753c.085-.65.414-1.222.936-1.616l11.638-8.941a2.422 2.422 0 0 1 3.404.456 2.42 2.42 0 0 1 .483 1.802 2.392 2.392 0 0 1-.935 1.617l-11.639 8.94a2.39 2.39 0 0 1-1.472.503v-.008Zm11.631-12.622c-.26 0-.53.085-.751.256l-11.639 8.94c-.26.201-.429.495-.475.82-.046.325.046.65.245.913a1.242 1.242 0 0 0 1.733.232l11.638-8.941c.261-.201.43-.495.476-.82a1.245 1.245 0 0 0-1.227-1.4Z"/><path fill="#F7A600" d="M383.375 20.248a1.802 1.802 0 0 0-.338-2.538L371.4 8.902a1.846 1.846 0 0 0-2.568.335 1.802 1.802 0 0 0 .337 2.538l11.638 8.808c.805.61 1.955.457 2.569-.335Z"/><path fill="#004F9E" d="M381.918 21.55c-.514 0-1.035-.16-1.472-.495l-11.638-8.808a2.395 2.395 0 0 1-.936-1.592 2.35 2.35 0 0 1 .483-1.776c.813-1.051 2.339-1.25 3.404-.45l11.639 8.809c.513.388.843.96.935 1.592a2.327 2.327 0 0 1-.483 1.776 2.422 2.422 0 0 1-1.932.937v.007Zm-11.63-12.435a1.226 1.226 0 0 0-1.227 1.38c.046.32.207.61.475.807l11.638 8.808a1.246 1.246 0 0 0 1.733-.228c.2-.26.284-.58.245-.9a1.222 1.222 0 0 0-.467-.807l-11.639-8.808a1.255 1.255 0 0 0-.75-.252h-.009Z"/><path fill="#F7A600" d="M365.238 3.546a1.914 1.914 0 0 0-2.58.685l-14.337 24.467a1.83 1.83 0 0 0 .696 2.53 1.914 1.914 0 0 0 2.58-.685l14.337-24.466a1.83 1.83 0 0 0-.696-2.531Z"/><path fill="#004F9E" d="M349.951 32.077c-.42 0-.847-.101-1.234-.327a2.46 2.46 0 0 1-1.171-1.487c-.174-.63-.087-1.3.245-1.869l14.337-24.467a2.531 2.531 0 0 1 3.419-.91 2.46 2.46 0 0 1 1.17 1.487c.175.63.088 1.3-.245 1.869l-14.337 24.466a2.527 2.527 0 0 1-2.184 1.238Zm14.353-28.173c-.443 0-.878.226-1.115.63L348.85 29.002a1.21 1.21 0 0 0-.126.95c.087.32.3.584.593.756a1.29 1.29 0 0 0 1.74-.468l14.338-24.466a1.21 1.21 0 0 0 .127-.95c-.087-.32-.3-.584-.594-.755a1.299 1.299 0 0 0-.633-.164h.008Z"/><path fill="#FFF" d="M301.626 1.697h5.889c.896 0 1.723.466 2.187 1.223l4.513 7.44v10.735l-6.113 9.198a2.553 2.553 0 0 1-2.218 1.269h-12.288c-.587 0-1.159-.207-1.607-.581l-4.135-3.418"/><path fill="#004F9E" d="M305.884 32.15h-12.288a3.11 3.11 0 0 1-1.994-.718l-4.134-3.418.773-.91 4.134 3.418c.34.283.773.436 1.221.436h12.288c.696 0 1.345-.375 1.693-.971l6.036-9.084v-10.39l-4.429-7.295a1.964 1.964 0 0 0-1.669-.933h-5.889V1.093h5.889a3.18 3.18 0 0 1 2.697 1.506l4.513 7.44.085.305V21.08l-.1.329-6.113 9.198c-.541.94-1.592 1.537-2.72 1.537l.007.008Z"/><path fill="#FFF" d="M332.099 1.697h6.275c.897 0 1.723.466 2.187 1.223l7.04 11.56a2.5 2.5 0 0 1 .032 2.554l-8.68 13.251a2.553 2.553 0 0 1-2.217 1.27H324.4a2.5 2.5 0 0 1-1.545-.528l-4.22-3.28"/><path fill="#004F9E" d="M336.743 32.15H324.41c-.696 0-1.376-.229-1.917-.657l-4.22-3.28.743-.933 4.22 3.28c.332.26.749.406 1.174.406h12.334c.696 0 1.345-.375 1.693-.972l8.694-13.273a1.911 1.911 0 0 0-.038-1.927l-7.04-11.56a1.964 1.964 0 0 0-1.67-.933h-6.276V1.108h6.276a3.18 3.18 0 0 1 2.697 1.506l7.04 11.56c.588.964.603 2.18.04 3.159l-8.695 13.273c-.541.94-1.592 1.545-2.72 1.545Z"/><path fill="#004F9E" d="M341.76 15.162h6.205v1.193h-6.206z"/><path fill="#F7A600" d="m287.112 26.76-6.723-9.748a2.498 2.498 0 0 1 0-2.524l6.723-11.53a2.56 2.56 0 0 1 2.21-1.261h12.296a2.56 2.56 0 0 1 2.21 1.261l6.724 11.53c.456.78.456 1.744 0 2.524l-6.723 9.748a2.56 2.56 0 0 1-2.21 1.262h-12.296a2.56 2.56 0 0 1-2.21-1.262Z"/><path fill="#004F9E" d="M301.626 28.618H289.33a3.176 3.176 0 0 1-2.72-1.537l-6.716-9.733c-.587-1.002-.587-2.194-.023-3.158l6.731-11.53a3.167 3.167 0 0 1 2.728-1.56h12.296c1.12 0 2.172.597 2.728 1.56l6.724 11.53a3.087 3.087 0 0 1 0 3.12l-6.755 9.787c-.533.925-1.584 1.521-2.705 1.521h.008ZM289.33 2.293a1.96 1.96 0 0 0-1.692.963l-6.732 11.53a1.91 1.91 0 0 0 0 1.927l6.732 9.749a1.96 1.96 0 0 0 1.692.963h12.296a1.96 1.96 0 0 0 1.692-.963l6.755-9.787c.325-.558.325-1.3-.023-1.896l-6.724-11.53a1.96 1.96 0 0 0-1.692-.964h-12.296l-.008.008Z"/><g transform="translate(285.381 5.573)"><path fill="#FFF" d="M12.342 1.177a9.162 9.162 0 0 0-2.35-.313c-4.915 0-8.895 3.945-8.895 8.8 0 4.856 3.98 8.801 8.896 8.801.811 0 1.6-.107 2.35-.313 3.77-1.017 6.545-4.435 6.545-8.495s-2.774-7.47-6.546-8.495v.015Z"/><path fill="#004F9E" d="M9.993 19.07c-5.24 0-9.498-4.214-9.498-9.398C.495 4.488 4.753.275 9.993.275a9.59 9.59 0 0 1 2.504.337c4.119 1.116 6.986 4.84 6.986 9.068s-2.875 7.952-6.986 9.068a9.59 9.59 0 0 1-2.504.336v-.015Zm0-17.61C5.418 1.46 1.7 5.146 1.7 9.672c0 4.527 3.718 8.212 8.293 8.212.742 0 1.476-.1 2.187-.29 3.593-.972 6.105-4.229 6.105-7.922 0-3.693-2.512-6.942-6.105-7.921a8.508 8.508 0 0 0-2.187-.29Z"/><ellipse cx="16.678" cy="9.672" fill="#004F9E" rx="2.21" ry="2.187"/><path fill="#004F9E" d="M11.16 18.993c-4.166-1.262-6.964-5.008-6.964-9.32 0-4.313 2.798-8.06 6.964-9.321l.355 1.139C7.86 2.6 5.402 5.887 5.402 9.672c0 3.785 2.458 7.073 6.113 8.181l-.355 1.14Z"/></g><path fill="#F7A600" d="m317.971 27.12-6.723-10.1a2.498 2.498 0 0 1 0-2.524l6.723-11.53a2.56 2.56 0 0 1 2.21-1.262h12.296a2.56 2.56 0 0 1 2.21 1.262l6.724 11.53c.456.78.456 1.743 0 2.523l-6.723 9.749a2.56 2.56 0 0 1-2.21 1.261h-12.296c-.912 0-1.755-.122-2.21-.91Z"/><path fill="#004F9E" d="M332.477 28.618h-12.295c-.997 0-2.102-.145-2.72-1.185l-6.717-10.093a3.107 3.107 0 0 1-.015-3.15l6.724-11.53a3.167 3.167 0 0 1 2.728-1.56h12.295c1.121 0 2.172.597 2.728 1.56l6.732 11.53a3.087 3.087 0 0 1 0 3.12l-6.755 9.787c-.533.925-1.584 1.521-2.705 1.521ZM320.182 2.293a1.96 1.96 0 0 0-1.693.963l-6.723 11.53a1.91 1.91 0 0 0 0 1.927l6.723 10.1c.255.444.719.612 1.693.612h12.295a1.96 1.96 0 0 0 1.693-.963l6.754-9.787c.325-.558.325-1.3-.023-1.896l-6.731-11.53a1.96 1.96 0 0 0-1.693-.964h-12.295v.008Z"/><g transform="translate(316.294 5.573)"><path fill="#FFF" d="M12.388 1.177A9.162 9.162 0 0 0 10.04.864c-4.915 0-8.895 3.945-8.895 8.8 0 4.856 3.98 8.801 8.895 8.801.812 0 1.6-.107 2.35-.313 3.77-1.017 6.545-4.435 6.545-8.495s-2.774-7.47-6.546-8.495v.015Z"/><path fill="#004F9E" d="M10.04 19.07C4.8 19.07.54 14.855.54 9.671c0-5.184 4.258-9.397 9.498-9.397.85 0 1.693.115 2.504.337 4.12 1.116 6.986 4.84 6.986 9.068s-2.875 7.952-6.986 9.068a9.59 9.59 0 0 1-2.504.336v-.015Zm0-17.61c-4.576 0-8.293 3.686-8.293 8.212 0 4.527 3.717 8.212 8.292 8.212.742 0 1.476-.1 2.187-.29 3.594-.972 6.106-4.229 6.106-7.922 0-3.693-2.512-6.942-6.106-7.913a8.464 8.464 0 0 0-2.187-.291V1.46Z"/><path fill="#004F9E" d="M11.353 18.954c-4.127-1.2-7.017-5.015-7.017-9.282 0-4.266 2.89-8.09 7.025-9.29l.34 1.14C8.068 2.569 5.533 5.918 5.533 9.665c0 3.746 2.528 7.087 6.152 8.143l-.34 1.139.008.007Z"/><ellipse cx="16.724" cy="9.672" fill="#004F9E" rx="2.21" ry="2.187"/></g><path fill="#004F9E" d="M313.974 30.375a4.128 4.128 0 0 1-3.252-1.597.773.773 0 0 1-.061-.893.959.959 0 0 1 .826-.45h4.98c.342 0 .66.175.827.45a.786.786 0 0 1-.06.893 4.117 4.117 0 0 1-3.253 1.597h-.007Zm-2.017-1.899c1.1 1.094 2.934 1.094 4.04 0h-4.04Z"/><g fill="#004F9E" transform="translate(260.585 2.945)"><circle cx="13.011" cy="6.473" r="1"/><circle cx="1.211" cy="15.549" r="1"/><circle cx="13.011" cy="24.624" r="1"/><circle cx="121.875" cy="15.549" r="1"/><circle cx="110.075" cy="24.624" r="1"/><circle cx="110.075" cy="6.473" r="1"/><g transform="translate(88.5)"><circle cx="15.619" cy="1.631" r="1" transform="rotate(-22.69 15.619 1.63)"/><circle cx="1.548" cy="26.278" r="1" transform="rotate(-22.69 1.548 26.278)"/></g></g></g></svg>